<svg width="143" height="72" viewBox="0 0 143 72" fill="none" xmlns="http://www.w3.org/2000/svg">
<path d="M7.04545 9.90909V39H3.52273V9.90909H7.04545ZM37.1768 9.90909V39H33.7678L17.9155 16.1591H17.6314V39H14.1087V9.90909H17.5178L33.4268 32.8068H33.7109V9.90909H37.1768ZM45.419 9.90909L54.0554 34.3977H54.3963L63.0327 9.90909H66.7259L56.044 39H52.4077L41.7259 9.90909H45.419ZM71.2571 39V9.90909H88.8139V13.0341H74.7798V22.8636H87.9048V25.9886H74.7798V35.875H89.0412V39H71.2571ZM111.072 17.1818C110.902 15.7424 110.211 14.625 108.999 13.8295C107.786 13.0341 106.3 12.6364 104.538 12.6364C103.25 12.6364 102.124 12.8447 101.158 13.2614C100.201 13.678 99.4531 14.2509 98.9134 14.9801C98.383 15.7093 98.1179 16.5379 98.1179 17.4659C98.1179 18.2424 98.3026 18.91 98.6719 19.4688C99.0507 20.018 99.5336 20.4773 100.121 20.8466C100.708 21.2064 101.323 21.5047 101.967 21.7415C102.611 21.9687 103.203 22.1534 103.743 22.2955L106.697 23.0909C107.455 23.2898 108.298 23.5644 109.226 23.9148C110.163 24.2652 111.058 24.7434 111.911 25.3494C112.772 25.946 113.482 26.7131 114.041 27.6506C114.6 28.5881 114.879 29.7386 114.879 31.1023C114.879 32.6742 114.467 34.0947 113.643 35.3636C112.829 36.6326 111.636 37.6411 110.064 38.3892C108.501 39.1373 106.603 39.5114 104.368 39.5114C102.285 39.5114 100.481 39.1752 98.956 38.5028C97.4408 37.8305 96.2476 36.893 95.3764 35.6903C94.5147 34.4877 94.027 33.0909 93.9134 31.5H97.5497C97.6444 32.5985 98.0137 33.5076 98.6577 34.2273C99.3111 34.9375 100.135 35.4678 101.129 35.8182C102.133 36.1591 103.213 36.3295 104.368 36.3295C105.713 36.3295 106.92 36.1117 107.99 35.6761C109.06 35.2311 109.908 34.6155 110.533 33.8295C111.158 33.0341 111.47 32.1061 111.47 31.0455C111.47 30.0795 111.2 29.2936 110.661 28.6875C110.121 28.0814 109.411 27.589 108.53 27.2102C107.649 26.8314 106.697 26.5 105.675 26.2159L102.095 25.1932C99.8224 24.5398 98.0232 23.607 96.6974 22.3949C95.3717 21.1828 94.7088 19.5966 94.7088 17.6364C94.7088 16.0076 95.1491 14.5871 96.0298 13.375C96.92 12.1534 98.1132 11.2064 99.6094 10.5341C101.115 9.85227 102.796 9.51136 104.652 9.51136C106.527 9.51136 108.194 9.84754 109.652 10.5199C111.11 11.1828 112.266 12.0919 113.118 13.2472C113.98 14.4025 114.434 15.714 114.482 17.1818H111.072ZM119.08 13.0341V9.90909H140.898V13.0341H131.751V39H128.228V13.0341H119.08Z" fill="white"/>
<path d="M36.4034 67L32.4261 52.4545H34.2159L37.2557 64.3011H37.3977L40.4943 52.4545H42.483L45.5795 64.3011H45.7216L48.7614 52.4545H50.5511L46.5739 67H44.7557L41.5455 55.4091H41.4318L38.2216 67H36.4034ZM52.2095 67H50.3629L55.7038 52.4545H57.522L62.8629 67H61.0163L56.6697 54.7557H56.5561L52.2095 67ZM52.8913 61.3182H60.3345V62.8807H52.8913V61.3182ZM65.1286 67V52.4545H66.8899V65.4375H73.6513V67H65.1286ZM76.3786 67V52.4545H78.1399V65.4375H84.9013V67H76.3786ZM87.6286 67V52.4545H96.407V54.017H89.3899V58.9318H95.9524V60.4943H89.3899V65.4375H96.5206V67H87.6286ZM98.7862 54.017V52.4545H109.695V54.017H105.121V67H103.36V54.017H98.7862Z" fill="white"/>
</svg>
